<svg width="64" height="64" viewBox="0 0 64 64" fill="none" xmlns="http://www.w3.org/2000/svg">
<path d="M34.7977 30.3597C36.6926 30.2299 38.4837 30.0482 40.3007 30.0222C44.0904 29.9703 47.8023 30.3856 51.3585 31.7354C52.7342 32.2546 54.0061 32.9035 55.0963 33.9158C56.0568 34.8243 56.55 35.9146 56.55 37.2643C56.524 42.9749 56.524 48.6596 56.55 54.3702C56.55 55.9796 55.927 57.1996 54.707 58.1859C52.9938 59.5617 50.9691 60.3144 48.8666 60.8076C43.3896 62.1055 37.9126 62.0795 32.4356 60.8336C32.176 60.7817 31.7867 60.8336 31.579 60.9893C22.468 67.5306 9.90465 62.9102 7.28296 51.9821C7.04934 51.0217 7.02339 49.9834 6.86764 48.997C6.84168 48.7634 6.65998 48.5039 6.47828 48.3741C5.95914 47.9847 5.38807 47.6992 4.89488 47.3098C3.64893 46.3234 3.02596 45.0775 3.02596 43.4422C3.05191 31.8133 3.05191 20.1585 3 8.50363C3 6.76449 3.67489 5.46662 5.02467 4.45429C6.60807 3.26025 8.39912 2.5594 10.294 2.09217C16.3421 0.586647 22.3901 0.612604 28.3863 2.32579C29.9177 2.76706 31.3714 3.39004 32.6433 4.3245C34.0709 5.36279 34.8237 6.68662 34.7977 8.55554C34.7198 15.59 34.7718 22.5985 34.7718 29.6329C34.7977 29.8665 34.7977 30.1261 34.7977 30.3597ZM8.45104 49.3345C8.6587 52.5792 9.85273 55.3825 11.9553 57.7966C12.9157 56.94 13.2791 56.7842 13.6425 57.1996C14.3693 58.0042 13.4608 58.3676 13.1234 58.8868C14.8106 60.7817 19.3012 62.6246 21.5595 62.3651C21.6633 61.794 21.3778 60.9115 22.3122 60.8595C23.4284 60.8076 22.9871 61.8459 23.2208 62.4429C26.4395 62.2353 29.2169 61.0672 31.6569 58.9387C31.2935 58.3936 30.4109 57.9783 31.0858 57.2515C31.8386 56.4728 32.2539 57.4591 32.799 57.7706C34.9275 55.3306 36.0956 52.5532 36.3032 49.3085C35.6284 49.2047 34.7458 49.4902 34.6939 48.5558C34.642 47.4656 35.6803 47.8549 36.3032 47.6732C36.0696 44.4545 34.9275 41.6511 32.799 39.2371C32.2279 39.5486 31.8126 40.535 31.0858 39.7562C30.385 39.0294 31.2935 38.6141 31.6569 38.069C29.2169 35.9405 26.4135 34.7724 23.1948 34.5648C23.065 35.2137 23.4025 36.1482 22.4161 36.1741C21.3778 36.1741 21.7152 35.2137 21.5595 34.5648C18.3408 34.7984 15.5374 35.9405 13.1234 38.095C13.954 39.0814 14.0578 39.3928 13.7204 39.7822C13.357 40.1975 13.0714 40.0937 11.9553 39.2631C9.85273 41.6771 8.6587 44.4805 8.477 47.7251C9.12593 47.8549 9.98252 47.4915 10.0863 48.5298C10.0863 49.049 9.80082 49.2047 8.45104 49.3345ZM33.2403 11.0734C31.9943 11.6964 30.8262 12.3972 29.5803 12.8904C26.2058 14.2142 22.6757 14.6036 19.0935 14.6036C15.5114 14.6296 11.9553 14.2662 8.58082 12.9942C7.20509 12.4751 5.90722 11.7223 4.55744 11.0734C4.55744 11.7743 4.5834 12.5789 4.55744 13.3836C4.50552 14.344 4.86893 15.0968 5.59573 15.6938C5.95913 16.0053 6.37445 16.2908 6.78977 16.5504C7.23104 16.8359 7.54253 17.1474 7.257 17.6925C7.02339 18.1598 6.58211 18.2117 5.98509 17.8742C5.51786 17.5887 5.07659 17.2772 4.5834 16.9398C4.5834 17.7444 4.63531 18.4453 4.5834 19.1461C4.45361 20.5738 5.10254 21.5861 6.24467 22.2091C7.41274 22.858 8.60678 23.507 9.87869 23.8704C15.3038 25.5057 20.8067 25.5316 26.3356 24.3376C28.2824 23.9223 30.1773 23.3253 31.7867 22.0793C32.3577 21.638 33.0067 21.0151 33.1364 20.3661C33.3701 19.2759 33.1884 18.1078 33.1884 16.9138C31.4752 18.3155 29.5024 19.0683 27.4518 19.5874C22.6756 20.8074 17.8216 20.8853 12.9676 20.1325C12.4744 20.0546 12.1629 19.7951 12.2408 19.25C12.3187 18.7308 12.6821 18.5491 13.1753 18.601C13.954 18.6789 14.7327 18.8087 15.5374 18.8866C19.7944 19.2759 23.9735 19.0423 28.0748 17.7963C29.5284 17.3551 30.9301 16.7581 32.1241 15.7717C32.7211 15.2785 33.2403 14.7334 33.2662 13.9287C33.2922 12.9942 33.2403 12.0079 33.2403 11.0734ZM18.3667 13.0721C22.0786 13.0721 25.1676 12.7347 28.2046 11.7743C29.6063 11.307 30.956 10.7619 32.1241 9.8015C33.6556 8.52959 33.6556 7.12789 32.1241 5.83003C31.9424 5.67428 31.7348 5.49258 31.5011 5.38875C30.359 4.84365 29.2169 4.19471 28.0229 3.83131C22.2603 2.11813 16.4459 2.14409 10.6574 3.57174C8.89231 4.01301 7.17913 4.66195 5.77743 5.83003C4.21999 7.12789 4.19404 8.52959 5.80339 9.77554C6.7119 10.4764 7.77615 11.0474 8.86636 11.4628C12.0591 12.7087 15.4595 13.0721 18.3667 13.0721ZM28.3343 34.0716C28.4901 34.2533 28.516 34.2792 28.542 34.3052C31.9424 35.8367 34.4862 38.2507 36.1994 41.5473C36.2773 41.703 36.5109 41.8588 36.6666 41.8588C40.8198 42.326 44.947 42.1184 48.9964 41.0541C50.7615 40.5869 52.4747 39.9639 53.8764 38.7439C55.33 37.498 55.3819 36.1222 53.8764 34.9282C52.9419 34.2014 51.8517 33.5524 50.7096 33.1631C44.4798 31.0086 38.1462 31.0346 31.8126 32.7218C30.6705 33.0593 29.5543 33.6044 28.3343 34.0716ZM33.2403 22.9359C31.7348 24.2078 30.0994 24.9087 28.3603 25.4278C23.1429 26.9333 17.8476 27.0891 12.5263 26.1546C10.2421 25.7652 8.03572 25.1423 6.01105 23.9482C5.54382 23.6627 5.10254 23.3512 4.55744 22.9878C4.55744 23.6627 4.60935 24.2338 4.55744 24.7789C4.32382 26.6218 5.20637 27.7899 6.7119 28.6206C7.12721 28.8542 7.54253 29.0878 7.95785 29.2695C10.294 30.2818 12.734 30.801 15.2519 31.0346C19.6127 31.4499 23.9216 31.2682 28.1007 29.9184C29.3726 29.5031 30.5667 28.8542 31.7348 28.2052C32.4875 27.764 33.1624 27.115 33.2143 26.1546C33.2922 25.1423 33.2403 24.104 33.2403 22.9359ZM33.5777 59.4838C33.5777 59.4838 33.6037 59.5098 33.6296 59.5098C38.7173 60.5221 43.8049 60.4961 48.8406 59.2242C50.5538 58.783 52.2151 58.16 53.6427 57.0698C54.2657 56.6025 54.8627 56.0315 54.9146 55.2268C54.9925 54.1885 54.9406 53.1243 54.9406 51.9821C52.89 53.6174 50.5798 54.3962 48.1398 54.9413C44.35 55.7719 40.5343 55.9017 36.6926 55.5383C36.5109 55.5123 36.1994 55.5902 36.1215 55.72C35.2649 56.94 34.4343 58.2119 33.5777 59.4838ZM54.9925 46.012C49.7232 49.5162 43.8568 49.7498 37.9645 49.62C37.653 51.0736 37.3415 52.5272 37.03 54.0068C41.2092 54.3702 45.3364 54.2404 49.3338 53.0204C50.7355 52.5792 52.0853 51.9043 53.4091 51.2034C54.2138 50.7621 54.9146 50.0613 54.9925 49.0749C55.0444 48.0885 54.9925 47.0502 54.9925 46.012ZM37.1598 43.5201C37.4194 44.9996 37.7049 46.4792 37.9905 48.0366C41.7283 48.2962 45.4921 48.1145 49.1521 47.0243C50.5798 46.609 51.9555 45.9081 53.3053 45.2332C54.0581 44.8439 54.7849 44.2209 54.8887 43.3383C55.0185 42.2481 54.9146 41.106 54.9146 40.0418C49.4636 43.5979 43.3377 43.7796 37.1598 43.5201ZM4.55744 28.984C4.55744 29.9963 4.5834 30.8269 4.55744 31.6576C4.53148 32.4882 4.81701 33.189 5.43999 33.7082C5.90722 34.1235 6.42637 34.5129 6.99743 34.8243C8.55487 35.7329 10.294 36.226 12.0591 36.5894C12.2927 36.6414 12.6042 36.5116 12.7859 36.3818C16.7833 33.3448 21.222 32.3584 26.128 33.5005C26.3356 33.5524 26.6212 33.5524 26.7769 33.4486C28.5939 32.1248 30.6705 31.4499 32.799 30.9048C32.9807 30.8529 33.2143 30.6971 33.2403 30.5673C33.2922 30.1001 33.2662 29.6069 33.2662 29.2176C32.176 29.7886 31.1377 30.4376 30.0735 30.9048C27.7633 31.8912 25.3233 32.3584 22.8314 32.618C18.3148 33.0852 13.8502 32.8256 9.46337 31.5278C7.69828 30.9567 6.08892 30.2039 4.55744 28.984ZM4.63531 35.2137C4.06425 38.6141 5.23233 40.535 8.45104 41.5213C9.28167 40.3273 10.0863 39.1333 10.917 37.9911C9.85273 37.6277 8.73657 37.3163 7.69828 36.849C6.63403 36.3818 5.62169 35.7588 4.63531 35.2137ZM7.8021 43.0528C6.73785 42.4558 5.6736 41.8328 4.5834 41.2099C4.5834 41.9367 4.5834 42.6635 4.5834 43.3643C4.5834 45.0515 5.38807 46.2196 6.91956 46.8166C7.20509 45.5447 7.49062 44.2988 7.8021 43.0528Z" fill="#00B5DD"/>
<path d="M8.45105 49.3345C9.80083 49.2047 10.1123 49.049 10.0604 48.5039C9.98253 47.4656 9.09998 47.8549 8.45105 47.6992C8.65871 44.4545 9.82679 41.6771 11.9293 39.2371C13.0455 40.0677 13.331 40.1716 13.6944 39.7562C14.0319 39.3669 13.928 39.0554 13.0974 38.069C15.5114 35.9405 18.3148 34.7724 21.5335 34.5388C21.6893 35.1618 21.3518 36.1482 22.3901 36.1482C23.4025 36.1482 23.065 35.2137 23.1689 34.5388C26.4135 34.7465 29.191 35.9146 31.6309 38.0431C31.2935 38.5882 30.385 39.0035 31.0599 39.7303C31.8126 40.509 32.228 39.5226 32.7731 39.2111C34.9016 41.6252 36.0437 44.4286 36.2773 47.6473C35.6543 47.829 34.616 47.4396 34.6679 48.5298C34.7199 49.4643 35.6024 49.1787 36.2773 49.2826C36.0696 52.5013 34.9016 55.3047 32.7731 57.7447C32.202 57.4332 31.8126 56.4468 31.0599 57.2255C30.359 57.9523 31.2675 58.3676 31.6309 58.9127C29.191 61.0412 26.4135 62.2093 23.1948 62.417C22.9871 61.82 23.4284 60.7557 22.2863 60.8336C21.3518 60.8855 21.6633 61.768 21.5335 62.3391C19.2753 62.5987 14.7846 60.7557 13.0974 58.8608C13.4349 58.3676 14.3174 57.9783 13.6166 57.1736C13.2532 56.7583 12.8898 56.914 11.9293 57.7706C9.85275 55.3825 8.65871 52.5792 8.45105 49.3345ZM33.7075 48.5039C33.6556 47.9068 33.6037 47.3098 33.5258 46.7128C32.6692 40.9243 27.5037 36.875 21.5076 37.2384C15.9268 37.5758 11.2804 42.4298 11.0987 48.0366C10.8651 54.7596 16.368 60.1327 23.065 59.7693C24.5446 59.6915 25.9722 59.3281 27.2961 58.6272C27.5556 58.4974 27.7633 58.134 27.7893 57.8485C27.8152 57.6408 27.5037 57.3034 27.2701 57.2255C27.0365 57.1476 26.699 57.2515 26.4395 57.3553C24.7263 58.1081 22.9352 58.4196 21.0663 58.134C17.0948 57.4851 14.3174 55.2787 13.1234 51.437C11.8774 47.5175 12.8378 43.9873 15.9008 41.2618C18.9119 38.5622 22.442 38.0171 26.1539 39.5486C31.3454 41.6771 33.5777 47.7251 31.1377 52.8128C30.8003 53.4877 30.8522 53.903 31.3194 54.1626C31.7867 54.3962 32.176 54.1885 32.5394 53.4877C33.2922 51.9043 33.6816 50.243 33.7075 48.5039ZM21.0923 49.2826C21.8969 49.2826 22.6237 49.3085 23.3765 49.2826C25.4012 49.1787 26.9586 47.5175 26.9586 45.4928C26.9586 43.4681 25.4271 41.8069 23.3765 41.703C22.5199 41.6511 21.6633 41.6771 20.8067 41.6771C19.6646 41.6771 19.5089 41.8328 19.5089 42.949C19.5089 44.5324 19.5089 46.0898 19.5089 47.7251C19.0676 47.7251 18.6782 47.7251 18.3148 47.7251C17.8216 47.7251 17.4842 47.9588 17.4582 48.4779C17.4582 48.997 17.7697 49.2566 18.2889 49.2566C18.6782 49.2826 19.0936 49.2566 19.4829 49.2566C19.4829 49.6719 19.4829 50.0094 19.4829 50.3987C19.0676 50.3987 18.6523 50.3987 18.2629 50.3987C17.7957 50.4247 17.4842 50.6583 17.4582 51.1515C17.4582 51.6707 17.7697 51.9302 18.2629 51.9302C18.6523 51.9562 19.0676 51.9302 19.5089 51.9302C19.5089 52.5792 19.5089 53.1502 19.5089 53.7213C19.5089 54.3443 19.8204 54.7077 20.2876 54.6817C20.7548 54.6817 21.0404 54.3443 21.0404 53.6953C21.0404 53.0983 21.0404 52.5272 21.0404 51.9043C22.4161 51.9043 23.662 51.9043 24.934 51.9043C25.5569 51.9043 25.9203 51.5928 25.8944 51.1255C25.8425 50.5804 25.505 50.3728 24.9599 50.3728C24.5705 50.3728 24.1812 50.3728 23.8178 50.3728C22.9093 50.3728 22.0008 50.3728 21.0663 50.3728C21.0923 50.0353 21.0923 49.7239 21.0923 49.2826Z" fill="white"/>
<path d="M33.7075 48.5039C33.6815 50.243 33.2921 51.8783 32.5394 53.4617C32.2019 54.1626 31.7866 54.3962 31.3194 54.1366C30.8781 53.903 30.8262 53.4877 31.1377 52.7868C33.5777 47.6992 31.3453 41.6511 26.1539 39.5226C22.416 37.9912 18.8858 38.5622 15.9007 41.2358C12.8378 43.9873 11.8774 47.4915 13.1233 51.4111C14.3433 55.2528 17.0948 57.4592 21.0662 58.1081C22.9352 58.4196 24.7262 58.0821 26.4394 57.3294C26.699 57.2255 27.0364 57.1217 27.27 57.1996C27.5037 57.2775 27.7892 57.6149 27.7892 57.8226C27.7632 58.1081 27.5296 58.4715 27.296 58.6013C25.9722 59.3021 24.5445 59.6655 23.065 59.7434C16.342 60.1068 10.865 54.7336 11.0986 48.0107C11.2803 42.378 15.9527 37.5499 21.5075 37.2124C27.5037 36.849 32.6692 40.9243 33.5258 46.6869C33.6036 47.3358 33.6296 47.9328 33.7075 48.5039Z" fill="#00B5DD"/>
<path d="M21.0923 49.2826C21.0923 49.698 21.0923 50.0354 21.0923 50.4507C22.0267 50.4507 22.9352 50.4507 23.8437 50.4507C24.2331 50.4507 24.6225 50.4507 24.9859 50.4507C25.505 50.4507 25.8684 50.6584 25.9203 51.2035C25.9722 51.6707 25.5829 51.9822 24.9599 51.9822C23.7139 51.9822 22.442 51.9822 21.0663 51.9822C21.0663 52.6052 21.0663 53.1762 21.0663 53.7733C21.0663 54.3962 20.7808 54.7596 20.3135 54.7596C19.8463 54.7596 19.5348 54.3962 19.5348 53.7992C19.5348 53.2282 19.5348 52.6571 19.5348 52.0082C19.0935 52.0082 18.7042 52.0082 18.2889 52.0082C17.7957 51.9822 17.4582 51.7486 17.4842 51.2294C17.4842 50.7363 17.7957 50.5026 18.2889 50.4767C18.6782 50.4767 19.0935 50.4767 19.5089 50.4767C19.5089 50.0614 19.5089 49.7499 19.5089 49.3346C19.0935 49.3346 18.7042 49.3346 18.3148 49.3346C17.8216 49.3086 17.4842 49.075 17.4842 48.5558C17.4842 48.0367 17.8216 47.8031 18.3408 47.8031C18.7301 47.8031 19.0935 47.8031 19.5348 47.8031C19.5348 46.1678 19.5348 44.5844 19.5348 43.0269C19.5348 41.9108 19.6906 41.7291 20.8327 41.755C21.6893 41.755 22.5459 41.7291 23.4025 41.781C25.4271 41.8848 26.9846 43.5201 26.9846 45.5708C26.9846 47.5954 25.4012 49.2567 23.4025 49.3605C22.6497 49.3086 21.8969 49.2826 21.0923 49.2826ZM21.1182 47.7512C21.9229 47.7512 22.6497 47.7771 23.3505 47.7512C24.4148 47.6992 25.2973 46.8427 25.4271 45.8044C25.5569 44.6882 24.9599 43.598 23.8956 43.3903C23.0131 43.2086 22.0527 43.2605 21.1182 43.2086C21.1182 44.792 21.1182 46.2197 21.1182 47.7512Z" fill="#B8EAF6"/>
<path d="M19.6646 4.86967C19.6906 5.44074 19.3531 5.70031 18.7301 5.75222C16.7055 5.95988 14.6808 6.16754 12.6302 6.3752C12.2408 6.42711 11.8774 6.53094 11.514 6.63477C10.8391 6.79052 10.4238 6.63477 10.32 6.1935C10.1902 5.70031 10.4238 5.31095 11.0987 5.18116C12.76 4.86968 14.3953 4.58414 16.0565 4.35053C16.9391 4.22074 17.8476 4.2467 18.7301 4.22074C19.2753 4.16883 19.6127 4.40244 19.6646 4.86967Z" fill="#B8EAF6"/>
<path d="M9.02217 7.02409C9.02217 7.59516 7.33495 8.84111 6.78984 8.65941C6.34857 8.50366 6.089 7.90664 6.40048 7.5692C6.91963 7.07601 7.51665 6.66069 8.13962 6.32325C8.52898 6.11559 9.02217 6.55686 9.02217 7.02409Z" fill="#B8EAF6"/>
</svg>
