<svg width="64" height="64" viewBox="0 0 64 64" fill="none" xmlns="http://www.w3.org/2000/svg">
<path d="M13.4843 21.9456C13.1844 21.9456 12.9344 21.9456 12.7095 21.9456C10.5599 21.9456 8.43539 21.9456 6.28584 21.9456C5.41103 21.9456 5.01111 21.5707 5.01111 20.6959C5.01111 15.8719 4.98611 11.0229 5.01111 6.19891C5.0361 3.27452 7.41061 1 10.41 1C19.1831 1 27.9313 1 36.7045 1C41.8034 1 46.9023 1 52.0013 1C55.5755 1 58 3.3995 58 6.97375C58 24.97 58 42.9662 58 60.9374C58 62.3121 57.4501 62.7121 56.1754 62.2622C49.6268 59.9626 43.0781 57.6881 36.5295 55.3636C36.0046 55.1886 35.5547 55.1636 35.0048 55.3636C28.4312 57.6881 21.8576 59.9626 15.284 62.2622C14.0342 62.6871 13.4843 62.2872 13.4843 60.9874C13.4843 48.2901 13.4843 35.5927 13.4843 22.9204C13.4843 22.6205 13.4843 22.3455 13.4843 21.9456ZM55.8754 59.9376C55.8754 59.5877 55.8754 59.3878 55.8754 59.1628C55.8754 41.7165 55.8754 24.2951 55.8754 6.84877C55.8754 4.59925 54.4008 3.12455 52.1512 3.12455C39.8788 3.12455 27.6064 3.12455 15.3339 3.12455C15.109 3.12455 14.859 3.12455 14.4841 3.12455C15.5839 4.57425 15.5839 6.17391 15.5839 7.74859C15.5839 24.845 15.5839 41.9664 15.5839 59.0628C15.5839 59.3128 15.5839 59.5877 15.5839 59.9126C15.9338 59.8127 16.2338 59.7127 16.5087 59.6127C22.6824 57.4632 28.8561 55.2886 35.0298 53.1141C35.5297 52.9391 35.9546 52.9641 36.4295 53.1141C40.9786 54.7137 45.5026 56.2884 50.0517 57.8881C52.0013 58.5879 53.9009 59.2378 55.8754 59.9376ZM7.13566 19.7961C9.28521 19.7961 11.3848 19.7961 13.4843 19.7961C13.4843 19.5461 13.4843 19.3462 13.4843 19.1462C13.4843 14.8721 13.4843 10.598 13.4843 6.32388C13.4843 4.49927 12.1096 3.12455 10.335 3.12455C8.51038 3.12455 7.13566 4.49927 7.13566 6.32388C7.13566 9.54821 7.13566 12.7725 7.13566 15.9719C7.13566 17.2466 7.13566 18.4963 7.13566 19.7961Z" fill="#00B5DD"/>
<path d="M34.6548 6.7237C34.7298 5.22402 35.0048 4.72412 35.7296 4.72412C36.4545 4.72412 36.7294 5.24901 36.8044 6.77369C36.9544 6.82368 37.1293 6.89867 37.3293 6.97365C38.4291 7.37357 39.3039 8.04842 39.8038 9.1232C40.0787 9.72307 39.9287 10.248 39.4039 10.5479C38.854 10.8478 38.3291 10.6729 37.9542 10.073C37.1793 8.82326 35.6796 8.39835 34.4049 9.0982C33.1552 9.77306 33.0802 10.9728 34.2549 11.7227C35.1797 12.2975 36.1795 12.7724 37.1543 13.2973C37.5292 13.4973 37.9292 13.7222 38.3041 13.9472C41.0285 15.5219 40.4786 18.6712 38.2291 20.0209C37.7792 20.2959 37.2793 20.4708 36.8044 20.6958C36.7044 22.2205 36.4545 22.6954 35.7296 22.7203C35.0298 22.7453 34.7548 22.2454 34.6049 20.6708C34.1799 20.4958 33.755 20.3209 33.3551 20.1209C32.5053 19.671 31.8804 18.9961 31.5555 18.0963C31.2806 17.3965 31.4805 16.8716 32.0804 16.5966C32.6303 16.3467 33.2052 16.5716 33.4301 17.2715C34.005 18.8961 36.5045 19.0211 37.5292 17.9963C38.2541 17.2465 38.2791 16.4467 37.4043 15.8968C36.5545 15.3469 35.6296 14.897 34.7548 14.4221C34.1799 14.0972 33.5801 13.7972 33.0302 13.4473C30.3308 11.6977 31.1306 8.77327 33.1052 7.52353C33.6051 7.17361 34.13 6.99864 34.6548 6.7237Z" fill="#B8EAF6"/>
<path d="M38.1292 26.4446C41.7534 26.4446 45.3527 26.4446 48.9769 26.4446C49.1519 26.4446 49.3269 26.4446 49.5018 26.4446C50.1017 26.5196 50.5766 26.9695 50.5766 27.5194C50.5766 28.0442 50.1017 28.4942 49.4768 28.5691C49.3019 28.5941 49.1269 28.5691 48.9519 28.5691C41.7285 28.5691 34.53 28.5691 27.3065 28.5691C26.2317 28.5691 25.7068 28.2192 25.6818 27.5194C25.6568 26.8195 26.2317 26.4446 27.3315 26.4446C30.9307 26.4446 34.53 26.4446 38.1292 26.4446Z" fill="#B8EAF6"/>
<path d="M38.0542 34.3929C34.4799 34.3929 30.9057 34.3929 27.3314 34.3929C27.1565 34.3929 26.9815 34.3929 26.8065 34.3929C26.1567 34.3429 25.6818 33.868 25.6818 33.3181C25.7068 32.7682 26.1567 32.3433 26.7815 32.2933C26.9565 32.2683 27.1315 32.2933 27.3064 32.2933C34.5299 32.2933 41.7284 32.2933 48.9519 32.2933C50.0017 32.2933 50.5516 32.6433 50.5765 33.3431C50.5765 34.043 50.0267 34.4179 48.9769 34.4179C45.3276 34.3929 41.7034 34.3929 38.0542 34.3929Z" fill="#B8EAF6"/>
<path d="M38.1291 40.7415C34.5299 40.7415 30.9306 40.7415 27.3314 40.7415C27.1314 40.7415 26.9315 40.7665 26.7315 40.7415C26.1316 40.6665 25.6567 40.1916 25.6817 39.6668C25.7067 39.1419 26.1316 38.717 26.7065 38.642C26.9065 38.617 27.1064 38.642 27.3064 38.642C34.5299 38.642 41.7284 38.642 48.9519 38.642C50.0016 38.642 50.5515 38.9919 50.5765 39.6917C50.5765 40.3916 50.0266 40.7665 48.9768 40.7665C45.3526 40.7415 41.7284 40.7415 38.1291 40.7415Z" fill="#B8EAF6"/>
<path d="M38.1292 47.1153C34.5049 47.1153 30.9057 47.1153 27.2814 47.1153C27.1065 47.1153 26.9315 47.1153 26.7565 47.1153C26.1567 47.0403 25.6818 46.5904 25.6818 46.0655C25.6818 45.5406 26.1567 45.0657 26.7565 45.0157C26.9315 44.9908 27.1065 45.0157 27.2814 45.0157C34.5049 45.0157 41.7034 45.0157 48.9269 45.0157C49.0269 45.0157 49.1518 45.0157 49.2518 45.0157C50.0267 45.0407 50.5266 45.4407 50.5515 46.0405C50.5765 46.6654 50.0267 47.1153 49.2268 47.1153C45.5526 47.1153 41.8534 47.1153 38.1292 47.1153Z" fill="#B8EAF6"/>
<path d="M21.4327 28.5441C21.3327 28.5441 21.2077 28.5441 21.1078 28.5441C20.3579 28.5191 19.858 28.0692 19.858 27.4694C19.883 26.8945 20.3829 26.4696 21.0828 26.4446C21.3327 26.4446 21.5577 26.4446 21.8076 26.4446C22.5075 26.4696 23.0074 26.9195 23.0074 27.4944C23.0074 28.0692 22.5075 28.5191 21.8076 28.5691C21.6826 28.5691 21.5577 28.5441 21.4327 28.5441Z" fill="#B8EAF6"/>
<path d="M21.4577 32.2684C21.5826 32.2684 21.7326 32.2684 21.8576 32.2684C22.5324 32.3184 23.0073 32.7433 23.0073 33.2932C23.0323 33.8681 22.5324 34.343 21.8326 34.368C21.5576 34.393 21.3077 34.393 21.0328 34.368C20.3329 34.343 19.833 33.8931 19.833 33.2932C19.833 32.7183 20.3329 32.2684 21.0328 32.2434C21.2077 32.2684 21.3327 32.2684 21.4577 32.2684Z" fill="#B8EAF6"/>
<path d="M21.3827 40.7416C21.2327 40.7416 21.0828 40.7666 20.9328 40.7416C20.3329 40.6666 19.858 40.2167 19.858 39.6918C19.858 39.1669 20.3329 38.692 20.9328 38.642C21.2077 38.617 21.5077 38.617 21.7826 38.642C22.5075 38.667 22.9824 39.0919 23.0074 39.6668C23.0324 40.2667 22.5075 40.7166 21.7826 40.7666C21.6577 40.7416 21.5077 40.7416 21.3827 40.7416Z" fill="#B8EAF6"/>
<path d="M21.4076 47.0904C21.2827 47.0904 21.1327 47.0904 21.0077 47.0904C20.3578 47.0404 19.858 46.6155 19.858 46.0656C19.833 45.4657 20.3329 45.0158 21.0327 44.9908C21.3076 44.9659 21.5576 44.9908 21.8325 44.9908C22.5324 45.0158 23.0323 45.4657 23.0323 46.0656C23.0323 46.6405 22.5324 47.0904 21.8325 47.1154C21.6826 47.1154 21.5326 47.1154 21.4076 47.0904Z" fill="#B8EAF6"/>
</svg>
