<svg width="64" height="64" viewBox="0 0 64 64" fill="none" xmlns="http://www.w3.org/2000/svg">
<g opacity="0.99">
<path d="M57.5924 23.8453C57.7561 28.4008 57.3257 32.9582 56.312 37.4025C54.7849 43.9589 51.8965 49.7753 47.0178 54.509C42.7097 58.6891 37.541 61.3873 31.9185 63.3268C31.5733 63.4555 31.2057 63.5135 30.8376 63.4973C30.4695 63.4811 30.1084 63.3911 29.7758 63.2326C24.7897 61.1181 20.0956 58.5328 16.0529 54.863C11.0725 50.3307 7.99771 44.6951 6.44993 38.1933C6.08653 36.6644 5.83798 35.1053 5.57625 33.5538C5.43126 32.6951 5.76454 32.1736 6.4537 32.0474C7.14285 31.9212 7.61547 32.3713 7.80941 33.2393C8.3743 35.8039 8.80549 38.4193 9.60385 40.9142C11.7429 47.6061 16.0058 52.7014 21.8429 56.5425C24.6892 58.3824 27.7057 59.9442 30.8509 61.2066C31.102 61.3129 31.3821 61.3288 31.6436 61.2518C36.801 59.2069 41.5912 56.5614 45.6075 52.6618C50.0305 48.3649 52.6629 43.0946 54.0337 37.1426C55.2933 31.6689 55.5155 26.1067 55.444 20.5201C55.4289 19.3677 55.3668 18.2153 55.3423 17.063C55.331 16.4981 55.5701 16.0443 56.1463 15.8767C56.6434 15.7317 57.1179 15.8485 57.3815 16.3079C57.5252 16.6004 57.5944 16.9238 57.583 17.2494C57.6018 19.1813 57.5924 21.1113 57.5924 23.8453Z" fill="#00B5DD"/>
<path d="M46.6073 31.8459C46.6073 39.5847 40.8455 46.0978 33.5548 47.2445C25.0288 48.5908 17.4877 42.2849 16.2412 34.9132C14.7461 26.0351 21.2517 16.9857 30.8772 16.837C35.1025 16.7748 38.7649 18.155 41.8265 21.066C42.1203 21.3466 42.3914 21.8192 42.3782 22.1958C42.3435 22.3935 42.2611 22.5796 42.138 22.7381C42.0149 22.8967 41.855 23.0227 41.6721 23.1053C41.3257 23.2126 40.8003 23.0525 40.4689 22.8322C39.5143 22.1958 38.6801 21.3617 37.6859 20.8024C29.9414 16.4359 20.2142 20.8665 18.5195 29.5901C17.0753 37.0258 22.5528 44.8909 30.9733 45.1488C38.7573 45.388 45.1141 38.2761 44.2555 30.5824C44.1369 29.5223 43.7622 28.4867 43.4515 27.4549C43.2142 26.664 43.3837 26.0295 43.9975 25.7828C44.6716 25.5135 45.261 25.8374 45.5698 26.6584C46.2514 28.4679 46.6186 30.3263 46.6073 31.8459Z" fill="#B8EAF6"/>
<path d="M7.27655 12.3369V16.1536C7.27655 19.8027 7.27655 23.45 7.26526 27.0972C7.26526 27.4738 7.20877 27.9634 6.97717 28.21C6.83337 28.3476 6.66076 28.4514 6.47186 28.5139C6.28297 28.5764 6.08252 28.5961 5.88506 28.5716C5.55743 28.4925 5.27687 28.0707 5.06222 27.7431C4.95113 27.5755 5.02268 27.2855 5.02268 27.0501C5.02268 21.9436 5.02268 16.8365 5.02268 11.7287C5.02268 10.4991 5.3296 10.179 6.52903 10.0924C15.1039 9.46476 22.8309 6.57131 29.7099 1.41206C31.3179 0.199453 31.3047 0.199453 32.8807 1.39135C39.193 6.17847 46.6978 9.14184 54.5778 9.95872C55.1615 10.0209 55.749 10.0529 56.3346 10.1131C57.1801 10.1979 57.6244 10.6422 57.5811 11.3427C57.5378 12.0431 57.0388 12.416 56.1746 12.3595C50.6538 11.9961 45.3609 10.7288 40.3428 8.36199C37.4883 7.01569 34.6808 5.59595 32.1596 3.67536C31.5589 3.21968 31.0581 3.24228 30.4442 3.67536C24.2776 8.02682 17.5084 10.9134 10.0087 11.9998C9.1256 12.1279 8.23873 12.2182 7.27655 12.3369Z" fill="#00B5DD"/>
<path d="M27.1622 35.5988C27.1227 34.6121 27.4673 34.1338 28.1037 34.051C28.7835 33.9625 29.322 34.3542 29.3634 35.1469C29.4406 36.6174 30.8886 37.2991 31.8206 36.9714C32.7527 36.6438 33.2648 35.8737 33.1556 34.9002C33.1076 34.4507 32.8958 34.0345 32.5608 33.7311C32.2257 33.4276 31.7907 33.258 31.3386 33.2545C30.4482 33.2384 29.5833 32.9543 28.8569 32.4392C28.2767 32.0138 27.8173 31.4446 27.5239 30.7876C27.2305 30.1307 27.1133 29.4086 27.1838 28.6926C27.2543 27.9766 27.5101 27.2913 27.926 26.7042C28.3418 26.1171 28.9034 25.6484 29.5555 25.3443C29.9452 25.156 30.2032 25.0298 30.2107 24.5139C30.2092 24.2218 30.3238 23.941 30.5294 23.7334C30.7349 23.5257 31.0144 23.4083 31.3066 23.4068C31.5987 23.4053 31.8795 23.5199 32.0871 23.7254C32.2948 23.9309 32.4123 24.2105 32.4138 24.5026C32.4251 25.0054 32.6604 25.1541 33.0558 25.3424C34.5057 26.0335 35.3154 27.2009 35.4359 28.8202C35.4942 29.5847 35.129 30.078 34.4944 30.1609C33.8071 30.2493 33.2648 29.869 33.2197 29.0782C33.1387 27.6942 31.8263 26.9806 30.8905 27.2348C30.4524 27.3426 30.0668 27.6025 29.8025 27.9681C29.5382 28.3337 29.4124 28.7814 29.4474 29.2312C29.4825 29.681 29.6762 30.1037 29.9939 30.424C30.3116 30.7443 30.7328 30.9413 31.1823 30.9799C31.6495 31.0115 32.1131 31.0826 32.5682 31.1927C33.3546 31.446 34.0474 31.9286 34.5574 32.5786C35.0674 33.2286 35.3714 34.0163 35.4303 34.8404C35.4893 35.6645 35.3004 36.4874 34.888 37.2034C34.4756 37.9193 33.8585 38.4956 33.1161 38.8581C32.6755 39.0615 32.3968 39.2253 32.3987 39.7902C32.3941 39.9327 32.3601 40.0727 32.2988 40.2015C32.2376 40.3303 32.1504 40.445 32.0428 40.5385C31.9351 40.632 31.8093 40.7023 31.6732 40.7449C31.5372 40.7876 31.3937 40.8016 31.252 40.7863C30.6269 40.7392 30.1938 40.3758 30.2032 39.7638C30.2032 39.2102 29.9283 39.0747 29.5234 38.8789C28.0755 38.169 27.2959 36.9846 27.1622 35.5988Z" fill="#B8EAF6"/>
</g>
</svg>
