<svg width="64" height="64" viewBox="0 0 64 64" fill="none" xmlns="http://www.w3.org/2000/svg">
<path d="M63.5 56.2775C63.2597 57.1053 62.7255 57.7463 62.138 58.3605C60.9363 59.5622 59.7612 60.8174 58.5862 62.0191C57.2242 63.4078 55.5151 63.4078 54.1264 62.0725C50.3609 58.4406 46.6222 54.782 42.8567 51.15C41.468 49.8148 41.2811 48.7465 42.1624 46.9573C40.4532 45.2748 38.7174 43.5924 36.9548 41.91C31.4535 46.1294 25.2846 47.7317 18.5014 46.3965C13.0268 45.3283 8.56697 42.4708 5.12197 38.0644C-1.52768 29.4919 -0.940159 17.1273 6.48394 9.22253C14.095 1.05068 26.2994 -0.338003 35.4326 5.83095C44.8863 12.1868 48.6518 25.593 41.8953 36.4086C43.6579 38.1178 45.4471 39.8536 47.2364 41.5628C47.3165 41.6429 47.5836 41.6696 47.7171 41.6162C48.999 41.1622 50.0939 41.456 51.0286 42.3907C54.8207 46.076 58.6129 49.7079 62.3517 53.42C62.8324 53.9007 63.1261 54.595 63.5 55.1825C63.5 55.5297 63.5 55.9036 63.5 56.2775ZM22.8544 44.8209C34.124 44.8476 43.284 35.7143 43.3107 24.4446C43.3374 13.1482 34.1775 3.96157 22.8811 3.96157C11.6381 3.96157 2.45143 13.1215 2.45143 24.3912C2.45143 35.6609 11.5847 44.8209 22.8544 44.8209ZM61.6306 55.7167C61.4437 55.4229 61.3369 55.1291 61.1499 54.9422C57.3043 51.2034 53.4588 47.438 49.5865 43.7259C49.0524 43.1918 48.5717 43.2185 48.0376 43.7526C46.6756 45.1413 45.3403 46.5033 44.005 47.892C43.4709 48.4528 43.4709 48.9602 44.0318 49.4943C47.8773 53.2331 51.7229 56.9451 55.5685 60.6839C56.1293 61.218 56.5833 61.218 57.1174 60.6839C58.5061 59.2685 59.8681 57.8531 61.23 56.4377C61.3636 56.2775 61.4704 56.0104 61.6306 55.7167ZM45.9545 43.085C44.1653 41.3491 42.4561 39.6934 40.7203 38.011C39.9191 38.8922 39.1981 39.7201 38.4236 40.5747C40.1328 42.2304 41.8152 43.8595 43.3641 45.3817C44.2721 44.6072 45.1 43.8595 45.9545 43.085Z" fill="#00B5DD"/>
<path d="M39.8658 24.3911C39.8658 33.7647 32.2547 41.3758 22.8811 41.3758C13.5342 41.3758 5.89648 33.738 5.89648 24.3644C5.92319 15.0442 13.5342 7.40649 22.8544 7.40649C32.228 7.40649 39.8658 15.0442 39.8658 24.3911ZM22.8544 39.3996C31.1331 39.4263 37.8896 32.7232 37.9163 24.4713C37.943 16.1659 31.2399 9.4094 22.9612 9.3827C14.6826 9.35599 7.89939 16.1125 7.89939 24.3911C7.87268 32.6431 14.6025 39.3996 22.8544 39.3996Z" fill="#B9EAF6"/>
<path d="M20.6379 25.326C20.7981 25.0857 20.9049 24.872 21.0652 24.7118C23.6289 22.0947 26.2193 19.4775 28.8097 16.8871C30.599 15.1246 33.5099 15.8723 34.1241 18.2758C34.4446 19.5042 34.0707 20.5725 33.1894 21.4804C30.2251 24.4715 27.2875 27.4625 24.3232 30.4535C23.8425 30.9609 23.3618 31.4416 22.8544 31.9223C21.4657 33.2575 19.6231 33.2575 18.2344 31.8956C16.3116 29.9995 14.3888 28.0767 12.4927 26.1539C11.2109 24.8453 11.1841 22.8958 12.4126 21.6407C13.6945 20.3588 15.6707 20.3588 17.0059 21.6941C18.181 22.8424 19.3293 23.9908 20.6379 25.326ZM13.3206 23.7771C13.6143 24.2311 13.7746 24.605 14.0416 24.872C15.8309 26.688 17.6202 28.4773 19.4361 30.2665C20.3174 31.1478 20.8515 31.1478 21.7328 30.2665C25.071 26.9016 28.3824 23.5368 31.7206 20.1452C31.8274 20.0384 31.961 19.9048 32.0411 19.7713C32.415 19.2906 32.3615 18.623 31.961 18.1957C31.507 17.7417 30.866 17.715 30.3586 18.1156C30.1717 18.2758 30.0115 18.4627 29.8245 18.623C27.0472 21.427 24.2965 24.2311 21.5191 27.0352C20.7981 27.7562 20.3708 27.7562 19.6498 27.0352C19.1958 26.5812 18.7151 26.1005 18.2611 25.6465C17.3798 24.7652 16.4985 23.8839 15.6172 23.0027C15.2434 22.6288 14.736 22.4685 14.282 22.7623C13.8814 23.0027 13.6678 23.4032 13.3206 23.7771Z" fill="#B9EAF6"/>
</svg>
