<svg width="64" height="64" viewBox="0 0 64 64" fill="none" xmlns="http://www.w3.org/2000/svg">
<path d="M36.8925 37.8361C37.7003 37.7627 38.606 37.6158 39.5361 37.6158C41.3475 37.5669 43.1589 37.6893 44.9703 37.5914C48.2504 37.42 50.3066 40.7735 48.4462 43.5885C49.6946 44.4453 50.429 45.5958 50.2821 47.1624C50.1597 48.729 49.254 49.7571 47.8587 50.3935C48.8379 52.8903 48.3483 54.4814 46.1453 55.8277C46.6104 56.7089 46.8796 57.6636 46.6348 58.6672C46.2432 60.3807 44.8234 61.5801 43.061 61.5801C41.2741 61.5801 39.4872 61.4577 37.7003 61.5311C36.4274 61.5801 35.179 61.9228 33.9061 62.1186C31.6296 62.4613 29.3532 62.7551 27.0522 62.3634C25.1184 62.0207 23.4294 61.1884 21.9362 59.9645C21.667 59.7442 21.2508 59.5974 20.9081 59.5974C18.5582 59.5729 16.1838 59.5729 13.8339 59.5729C12.7324 59.5729 12.4631 59.2791 12.4631 58.2021C12.4631 52.107 12.4631 46.0119 12.4631 39.8923C12.4631 38.8642 12.7814 38.546 13.8094 38.546C16.2328 38.546 18.6561 38.546 21.0795 38.5215C21.3977 38.5215 21.7649 38.3991 22.0097 38.2278C23.307 37.2976 24.5799 36.3675 25.8283 35.3883C27.7621 33.8217 28.7657 31.8145 28.6433 29.2687C28.5699 27.6777 28.6188 26.0866 28.6433 24.52C28.6433 23.5653 28.986 23.2471 29.9406 23.2716C33.8572 23.3695 37.3086 26.674 37.48 30.5906C37.5534 32.2551 37.5779 33.9196 37.48 35.5841C37.431 36.3919 37.0638 37.1752 36.8925 37.8361ZM33.6858 48.0681C33.1718 48.4352 32.5843 48.8514 31.9479 49.243C31.2625 49.6836 30.675 49.5857 30.3568 49.0472C30.063 48.5332 30.2833 48.0681 30.9198 47.5785C31.8255 46.8931 32.7801 46.2322 33.5389 45.3999C35.0566 43.7354 35.1545 41.9485 34.004 40.0392C33.49 39.1825 33.5145 38.9621 34.1754 38.2278C34.8853 37.42 35.4972 36.5388 35.5462 35.4373C35.5951 33.9196 35.6196 32.3775 35.5217 30.8598C35.3993 28.363 34.0775 26.6496 31.8255 25.646C31.4583 25.4746 31.0422 25.4257 30.5771 25.3033C30.5771 26.8209 30.6016 28.1917 30.5771 29.5625C30.5771 30.1989 30.5526 30.8354 30.4547 31.4473C30.112 33.6014 28.937 35.2904 27.3215 36.6612C26.0486 37.7382 24.6533 38.7174 23.307 39.721C22.9888 39.9413 22.8664 40.1861 22.8664 40.5777C22.8909 46.2812 22.8664 52.0091 22.8909 57.7125C22.8909 57.9573 23.0133 58.3 23.2091 58.4224C24.0658 58.9854 24.9226 59.5974 25.8528 59.989C27.811 60.8213 29.8672 60.6744 31.9234 60.4296C33.0739 60.2827 34.1999 60.0869 35.3993 59.9156C34.4691 58.1042 34.6894 56.5131 36.0113 55.1178C34.5915 53.5512 34.4691 51.8867 35.4727 50.2466C34.8363 49.4878 34.2733 48.7779 33.6858 48.0681ZM20.8592 57.5901C20.8592 51.8867 20.8592 46.2322 20.8592 40.5532C18.6806 40.5532 16.5755 40.5532 14.4214 40.5532C14.4214 46.2567 14.4214 51.9112 14.4214 57.5901C16.5755 57.5901 18.7051 57.5901 20.8592 57.5901ZM41.9595 48.6311C43.4282 48.6311 44.8724 48.6311 46.3411 48.6311C47.5405 48.6311 48.3483 47.8967 48.3483 46.8197C48.3483 45.7671 47.565 45.0817 46.3656 45.0817C43.4527 45.0817 40.5153 45.0817 37.6023 45.0817C37.3331 45.0817 37.0393 45.1062 36.7701 45.2041C35.9623 45.4979 35.5217 46.3056 35.6441 47.1379C35.7909 47.9946 36.5008 48.6066 37.4555 48.6311C38.9731 48.6556 40.4663 48.6311 41.9595 48.6311ZM42.0084 43.1235C43.0855 43.1235 44.1625 43.1235 45.2396 43.1235C45.827 43.1235 46.3656 42.9521 46.7572 42.487C47.1978 41.973 47.3447 41.361 47.0754 40.7246C46.8307 40.0881 46.3656 39.6231 45.6802 39.5986C43.2079 39.5496 40.7111 39.5741 38.2388 39.5986C38.0185 39.5986 37.7737 39.721 37.5779 39.8434C36.9169 40.2595 36.6232 41.0428 36.8435 41.8016C37.0393 42.536 37.7003 43.0745 38.5815 43.099C39.732 43.1479 40.858 43.1235 42.0084 43.1235ZM41.5678 54.1387C42.5714 54.1387 43.5506 54.1387 44.5542 54.1387C45.6312 54.1387 46.4145 53.3799 46.4145 52.3763C46.4145 51.3726 45.6557 50.5893 44.5787 50.5893C42.5959 50.5893 40.5887 50.5893 38.606 50.5893C37.5289 50.5893 36.7456 51.3726 36.7701 52.3763C36.7701 53.3799 37.5779 54.1387 38.6304 54.1387C39.6096 54.1632 40.5887 54.1387 41.5678 54.1387ZM40.7845 59.6463C41.5189 59.6463 42.2532 59.6463 42.9876 59.6463C44.0157 59.6218 44.7745 58.8875 44.799 57.8839C44.799 56.9047 44.0646 56.1214 43.012 56.097C41.5189 56.0725 40.0502 56.0725 38.557 56.097C37.5289 56.1214 36.7701 56.9292 36.7701 57.8839C36.7701 58.863 37.5534 59.6218 38.5815 59.6218C39.3158 59.6708 40.0502 59.6463 40.7845 59.6463Z" fill="#00B5DD"/>
<path d="M39.8788 8.73153C39.7565 8.92736 39.5606 9.34349 39.2424 9.61275C38.3122 10.4205 37.3331 11.1794 36.354 11.9627C36.0847 12.183 35.9868 12.3543 36.1092 12.7215C36.4519 13.872 36.7456 15.0225 37.0638 16.1729C37.2841 16.9562 37.1373 17.4948 36.6232 17.8619C36.1092 18.2291 35.5951 18.2046 34.8853 17.7395C33.9061 17.1031 32.9515 16.4912 31.9968 15.8302C31.6541 15.5855 31.3849 15.561 31.0422 15.8058C30.063 16.4912 29.035 17.1276 28.0314 17.7885C27.3704 18.2291 26.8564 18.2291 26.3423 17.8375C25.8038 17.4213 25.7304 16.8828 25.9017 16.2464C26.2444 15.0469 26.5382 13.8475 26.8809 12.6725C26.9788 12.3543 26.9053 12.1585 26.6361 11.9627C25.657 11.2038 24.7023 10.4205 23.7232 9.63723C23.2091 9.24558 22.9399 8.75601 23.1602 8.0951C23.356 7.48314 23.7966 7.1894 24.5554 7.14044C25.7549 7.09149 26.9543 7.01805 28.1537 6.96909C28.5454 6.96909 28.7657 6.82222 28.9126 6.43057C29.3042 5.32905 29.7204 4.27648 30.1365 3.17496C30.4547 2.3427 30.8464 2 31.5073 2C32.2906 2.02448 32.6333 2.51404 32.8781 3.19944C33.2697 4.27648 33.7103 5.35353 34.102 6.45505C34.2244 6.82222 34.4202 6.94462 34.8118 6.96909C36.0602 7.01805 37.2841 7.06701 38.5325 7.14044C39.3158 7.21388 39.8788 7.7524 39.8788 8.73153ZM26.0976 9.04975C26.8809 9.66171 27.5173 10.2247 28.2027 10.7143C28.937 11.2528 29.1574 11.9137 28.8636 12.7949C28.5944 13.6027 28.423 14.435 28.1537 15.3651C29.035 14.8021 29.7938 14.3371 30.5281 13.823C31.1891 13.3579 31.801 13.3824 32.4374 13.823C33.1718 14.3371 33.9551 14.8021 34.8118 15.3651C34.5426 14.386 34.3223 13.5048 34.0775 12.6725C33.8327 11.8892 34.0285 11.3018 34.6894 10.8122C35.3993 10.2981 36.0602 9.71066 36.868 9.07423C35.8399 9.02527 34.9832 8.92736 34.102 8.92736C33.2207 8.92736 32.7067 8.51123 32.4374 7.70344C32.1682 6.89566 31.85 6.13683 31.4828 5.18218C31.0911 6.18579 30.7729 7.04253 30.4547 7.87479C30.2099 8.56018 29.7448 8.90288 28.986 8.92736C28.0803 8.92736 27.1746 9.00079 26.0976 9.04975Z" fill="#B9EAF6"/>
<path d="M9.62362 26.2334C9.89288 25.2543 10.1132 24.4465 10.309 23.6387C10.4804 22.9288 10.921 22.1455 10.7496 21.558C10.5783 20.995 9.74601 20.6279 9.18301 20.1872C8.66896 19.7711 8.13044 19.355 7.6164 18.9144C7.05339 18.4493 6.88205 17.9597 7.07787 17.3722C7.2737 16.8092 7.73879 16.491 8.44866 16.4665C9.64809 16.4176 10.8475 16.3442 12.047 16.2952C12.4631 16.2707 12.6834 16.1483 12.8303 15.7322C13.1974 14.6552 13.6381 13.6026 14.0297 12.55C14.2745 11.8891 14.6172 11.3751 15.376 11.3506C16.0124 11.3261 16.4286 11.6688 16.7468 12.5255C17.1629 13.6026 17.5791 14.6796 17.9707 15.7812C18.1176 16.1728 18.3134 16.3197 18.7051 16.3197C19.9045 16.3442 21.1039 16.4176 22.3034 16.491C23.0622 16.5155 23.5028 16.8337 23.6986 17.4457C23.8945 18.0087 23.6986 18.5227 23.1356 18.9878C22.181 19.7466 21.2508 20.5299 20.2717 21.2643C19.9535 21.5091 19.9045 21.7294 20.0024 22.0721C20.3451 23.2715 20.6388 24.4709 20.9815 25.6459C21.1529 26.2579 21.0305 26.7719 20.5409 27.1636C20.0514 27.5552 19.5128 27.5552 18.9009 27.1391C17.8973 26.5026 16.8692 25.8417 15.9145 25.1563C15.4984 24.8626 15.2291 24.9116 14.8375 25.1808C13.8339 25.8662 12.8058 26.5271 11.7777 27.188C11.3126 27.4818 10.7986 27.5797 10.358 27.237C10.0397 26.9433 9.84392 26.5026 9.62362 26.2334ZM10.2356 18.3269C10.2111 18.3759 10.2111 18.4248 10.1866 18.4738C10.8475 19.0123 11.5084 19.5508 12.1694 20.0649C12.8303 20.5544 13.0751 21.1664 12.8058 21.9742C12.5365 22.8309 12.3407 23.6876 12.0714 24.6668C12.8303 24.1527 13.5401 23.7611 14.1521 23.296C15.0088 22.6351 15.7921 22.6351 16.6244 23.296C17.2364 23.7856 17.9218 24.1527 18.7051 24.6668C18.4603 23.7121 18.2645 22.8799 17.9952 22.0721C17.7259 21.2153 17.8973 20.5789 18.6316 20.0649C19.317 19.5508 19.9779 18.9878 20.7612 18.3514C19.7087 18.3024 18.8275 18.2045 17.9218 18.2045C17.114 18.2045 16.6489 17.8129 16.3796 17.0785C16.0859 16.2462 15.7432 15.414 15.376 14.4348C14.9844 15.4385 14.6661 16.2952 14.3479 17.1764C14.1031 17.8373 13.6625 18.18 12.9282 18.2045C12.0225 18.2045 11.1413 18.2779 10.2356 18.3269Z" fill="#B9EAF6"/>
<path d="M51.7752 27.4085C51.6283 27.335 51.3101 27.2371 51.0408 27.0658C50.0372 26.4293 49.0336 25.7684 48.03 25.1075C47.6873 24.8872 47.467 24.8627 47.1243 25.1075C46.1452 25.7929 45.1171 26.4293 44.1135 27.0902C43.4281 27.5308 42.9385 27.5553 42.4245 27.1881C41.9349 26.8455 41.788 26.3069 41.9839 25.5481C42.3021 24.3731 42.6203 23.1982 42.963 22.0232C43.0609 21.6805 42.9875 21.4847 42.7182 21.2644C41.7391 20.5056 40.7844 19.7223 39.8298 18.939C39.2668 18.4739 39.0954 17.9598 39.2913 17.3968C39.4871 16.8093 39.9277 16.5156 40.662 16.4911C41.8615 16.4422 43.0609 16.3687 44.2603 16.3198C44.6765 16.2953 44.8968 16.1729 45.0437 15.7568C45.4353 14.6553 45.8759 13.6027 46.2676 12.5012C46.5123 11.8403 46.855 11.3996 47.5894 11.3752C48.2258 11.3507 48.642 11.7179 48.9602 12.5256C49.3763 13.6027 49.7924 14.6797 50.1841 15.7813C50.331 16.1729 50.5268 16.3198 50.9184 16.3198C52.1179 16.3443 53.3173 16.4422 54.5168 16.4911C55.1777 16.5156 55.6672 16.7604 55.912 17.3724C56.1323 17.9598 55.9365 18.4984 55.349 18.9634C54.3944 19.7467 53.4152 20.5301 52.4606 21.2889C52.1913 21.4847 52.1179 21.6561 52.2158 21.9987C52.583 23.1982 52.9012 24.4221 53.2194 25.646C53.4152 26.5762 52.8277 27.4085 51.7752 27.4085ZM42.2042 18.327C42.9875 18.9634 43.6484 19.5264 44.3338 20.0405C45.0437 20.5545 45.215 21.191 44.9457 22.0232C44.6765 22.831 44.5051 23.6877 44.2359 24.6424C45.0926 24.0794 45.827 23.6388 46.5368 23.1247C47.2222 22.6352 47.8587 22.6352 48.544 23.1247C49.2539 23.6388 50.0127 24.0794 50.845 24.6424C50.6492 23.9081 50.5757 23.2961 50.331 22.7576C49.6945 21.3134 50.1107 20.3097 51.408 19.5264C51.8976 19.2327 52.3382 18.7921 52.9012 18.327C51.8486 18.278 50.9919 18.1801 50.1596 18.1801C49.2784 18.1801 48.7644 17.7885 48.4951 16.9562C48.2258 16.1484 47.8831 15.3407 47.516 14.435C47.1243 15.4386 46.8061 16.2708 46.4879 17.1276C46.2431 17.8374 45.778 18.1557 45.0192 18.1801C44.1624 18.2046 43.2567 18.278 42.2042 18.327Z" fill="#B9EAF6"/>
</svg>
